<svg width="24" height="24" viewBox="0 0 24 24" fill="none" xmlns="http://www.w3.org/2000/svg">
<path d="M2.5771 24H21.4229C22.8462 24 23.9988 22.845 24 21.4229V2.5771C24 1.1538 22.845 0.00120313 21.4229 0H2.5771C1.1538 0 0.00120313 1.155 0 2.5771V21.4229C0 22.8462 1.155 23.9988 2.5771 24ZM1.09364 2.5771C1.09364 1.75777 1.75777 1.09364 2.5771 1.09364H21.4229C22.2422 1.09364 22.9052 1.75777 22.9064 2.5771V21.4229C22.9064 22.241 22.2422 22.9052 21.4229 22.9064H2.5771C1.75897 22.9064 1.09485 22.2422 1.09364 21.4229V2.5771Z" fill="#FF5B5B"/>
<path d="M5.27566 18.5258C5.37191 18.7038 5.5572 18.8145 5.75932 18.8145H19.5857C19.7806 18.8145 19.961 18.711 20.0585 18.5414C20.156 18.373 20.156 18.1636 20.0585 17.9952L15.4505 10.0389C15.3555 9.87647 15.1858 9.77421 14.9981 9.76699C14.8117 9.75737 14.6336 9.8464 14.5265 10.0004L11.8736 13.8167L9.81627 12.2887C9.69596 12.1985 9.54557 12.1624 9.39758 12.1877C9.2508 12.2117 9.12086 12.2972 9.03664 12.4211L5.30574 17.9639C5.19265 18.1311 5.18062 18.3477 5.27566 18.5258ZM9.62377 13.5087L11.6739 15.0319C11.793 15.1197 11.9422 15.1558 12.0878 15.1317C12.2346 15.1077 12.3645 15.0259 12.4487 14.9043L14.9344 11.3311L18.6364 17.7221H6.78559L9.62377 13.5075V13.5087ZM6.2526 9.92701C6.91793 9.92701 7.51709 9.52636 7.77215 8.91277C8.02601 8.29797 7.88525 7.59053 7.41603 7.12011C6.94561 6.65089 6.23817 6.50892 5.62337 6.76398C5.00977 7.01784 4.60913 7.6182 4.60913 8.28233C4.60913 9.19069 5.34424 9.9258 6.2526 9.92701ZM6.2526 7.7325C6.47518 7.7325 6.6761 7.86605 6.76153 8.07178C6.84575 8.27752 6.80003 8.51453 6.64121 8.67214C6.48481 8.82855 6.24779 8.87668 6.04206 8.79246C5.83752 8.70583 5.70277 8.50491 5.70277 8.28233C5.70277 7.97914 5.94821 7.7325 6.2526 7.7325Z" fill="#FF5B5B"/>
</svg>
