<svg width="11" height="19" viewBox="0 0 11 19" fill="none" xmlns="http://www.w3.org/2000/svg">
<path d="M2.01595 0.716939L9.91597 8.98492C10.0097 9.08335 10.076 9.18998 10.1148 9.30481C10.1541 9.41964 10.1738 9.54268 10.1738 9.67392C10.1738 9.80516 10.1541 9.92819 10.1148 10.043C10.076 10.1579 10.0097 10.2645 9.91597 10.3629L2.01595 18.6555C1.79715 18.8852 1.52366 19 1.19547 19C0.867281 19 0.585975 18.877 0.351553 18.6309C0.117131 18.3848 -8.00298e-05 18.0977 -8.00011e-05 17.7696C-7.99724e-05 17.4416 0.117131 17.1545 0.351553 16.9084L7.24356 9.67392L0.351554 2.43944C0.132761 2.20977 0.0233637 1.92695 0.0233637 1.59099C0.0233637 1.25436 0.140575 0.96301 0.374997 0.716939C0.609419 0.47087 0.88291 0.347835 1.19547 0.347835C1.50804 0.347835 1.78153 0.47087 2.01595 0.716939Z" fill="#FF5B5B"/>
</svg>
