<svg width="27" height="27" viewBox="0 0 27 27" fill="none" xmlns="http://www.w3.org/2000/svg">
<path d="M1.29379 1C1.15389 1 1.04706 1.10542 1.04706 1.24641V12.5353C1.04706 12.6763 1.15262 12.7817 1.29379 12.7817H12.5977C12.7388 12.7817 12.8431 12.6776 12.8431 12.5353V1.25403C12.8418 1.10669 12.7312 1 12.5989 1H1.29379ZM18.4607 1.00127C18.3971 1.00127 18.3386 1.02286 18.289 1.0724L16.333 3.02586C16.2325 3.1262 16.2325 3.271 16.333 3.3688L18.289 5.3248C18.3399 5.3756 18.3958 5.39593 18.4632 5.39593C18.5319 5.39593 18.5866 5.3756 18.6388 5.32353C18.7392 5.22319 18.7392 5.0822 18.6388 4.98059L17.0986 3.44119H21.3337C23.6319 3.44119 25.5065 5.31591 25.5065 7.60976V9.91632C25.5065 10.056 25.6121 10.1627 25.7533 10.1627C25.8957 10.1627 26 10.0573 26 9.91632V7.60976C26 5.04156 23.9104 2.95473 21.3388 2.95473H17.1037L18.64 1.41787C18.7265 1.32896 18.7303 1.17147 18.6337 1.07367V1.0724H18.6324C18.5815 1.02159 18.5243 1.00127 18.4607 1.00127ZM1.53925 1.48773H12.356V12.2915H1.53925V1.48773ZM14.3973 14.2183C14.2599 14.2208 14.1505 14.3326 14.1505 14.4647V25.7536C14.1505 25.8958 14.2548 26 14.396 26H25.6999C25.8398 26 25.9466 25.8958 25.9466 25.7536V14.4647C25.9466 14.325 25.841 14.2183 25.6999 14.2183H14.3973ZM14.6364 14.7098H25.4506V25.5135H14.6364V14.7111V14.7098ZM1.24546 16.8385C1.10302 16.8385 1 16.9402 1 17.0837V19.3902C1 21.9597 3.08831 24.0465 5.65992 24.0465H9.89759L8.35616 25.5859C8.25569 25.6863 8.25569 25.8273 8.35616 25.9289C8.40703 25.9797 8.46299 26 8.53167 26C8.59907 26 8.65376 25.9797 8.70591 25.9276L10.662 23.9741C10.7103 23.9271 10.7344 23.8674 10.7344 23.8001C10.7344 23.7315 10.709 23.6731 10.662 23.6249L8.70718 21.6701C8.60671 21.5698 8.46553 21.5698 8.36379 21.6701C8.26332 21.7705 8.26332 21.9114 8.36379 22.0131L9.90522 23.5525H5.66755C3.37066 23.5525 1.49346 21.679 1.49346 19.3852V17.0824C1.49346 16.9414 1.38917 16.8373 1.24673 16.8373L1.24546 16.8385Z" fill="#FF5B5B" stroke="#FF5B5B" stroke-width="0.6"/>
</svg>
