<svg width="25" height="34" viewBox="0 0 25 34" fill="none" xmlns="http://www.w3.org/2000/svg">
<path d="M7.18392 15.5018C6.96945 15.7257 6.96945 16.0885 7.18392 16.3125L12.1118 21.4717C12.219 21.5843 12.3595 21.6406 12.4988 21.6406C12.6369 21.6406 12.7799 21.5843 12.8846 21.4717L17.8125 16.3125C18.027 16.0873 18.027 15.7245 17.8125 15.5018C17.5993 15.2766 17.2529 15.2766 17.0384 15.5018L13.0449 19.684V1.57172C13.0449 1.25521 12.7983 1 12.4964 1C12.1956 1 11.9491 1.25521 11.9491 1.57172V19.684L7.95552 15.5018C7.74475 15.2766 7.39839 15.2766 7.18392 15.5018Z" fill="#FF5B5B" stroke="#FF5B5B" stroke-width="0.2"/>
<path d="M16.8806 10.1724C16.5786 10.1724 16.3346 10.4276 16.3346 10.7441C16.3346 11.0619 16.5811 11.3171 16.8806 11.3171H22.9042V31.9589H2.097V11.3183H8.12063C8.42262 11.3183 8.66667 11.0631 8.66667 10.7466C8.66667 10.4289 8.42015 10.1736 8.12063 10.1736H1V33.1086H24V10.1711H16.8806V10.1724Z" fill="#FF5B5B" stroke="#FF5B5B" stroke-width="0.2"/>
</svg>
