<svg width="24" height="24" viewBox="0 0 24 24" fill="none" xmlns="http://www.w3.org/2000/svg">
<path d="M9.6 15.6H12V16.8H9.6V15.6ZM14.4 16.8H15C15.99 16.8 16.8 15.99 16.8 15V14.4H15.6V15C15.6 15.3252 15.3252 15.6 15 15.6H14.4V16.8ZM1.8 15.6C1.4748 15.6 1.2 15.3252 1.2 15V1.8C1.2 1.4748 1.4748 1.2 1.8 1.2H15C15.3252 1.2 15.6 1.4748 15.6 1.8V7.2H16.8V1.8C16.8 0.81 15.99 0 15 0H1.8C0.81 0 0 0.81 0 1.8V15C0 15.99 0.81 16.8 1.8 16.8H7.2V15.6H1.8ZM15.6 9.6H16.8V12H15.6V9.6Z" fill="#FF5B5B"/>
<path d="M7.19995 12H8.39995V14.4H7.19995V12ZM8.39995 8.99995C8.39995 8.67475 8.67475 8.39995 8.99995 8.39995H9.59995V7.19995H8.99995C8.00995 7.19995 7.19995 8.00995 7.19995 8.99995V9.59995H8.39995V8.99995ZM22.2 7.19995H16.8V8.39995H22.2C22.5252 8.39995 22.8 8.67475 22.8 8.99995V22.2C22.8 22.5252 22.5252 22.8 22.2 22.8H8.99995C8.67475 22.8 8.39995 22.5252 8.39995 22.2V16.8H7.19995V22.2C7.19995 23.1899 8.00995 24 8.99995 24H22.2C23.1899 24 24 23.1899 24 22.2V8.99995C24 8.00995 23.1899 7.19995 22.2 7.19995ZM12 7.19995H14.4V8.39995H12V7.19995Z" fill="#FF5B5B"/>
</svg>
